<svg version="1" xmlns="http://www.w3.org/2000/svg" width="933.333" height="933.333" viewBox="0 0 700.000000 700.000000"><path d="M212.2 212.3C131.8 292.7 66 358.9 66 359.5c0 .5 16.1 17.1 35.7 36.7l35.7 35.7-2.2 2.4c-1.2 1.3-1.9 2.7-1.5 3.2.5.4.3.5-.3.2-1.4-.8-5.7 3.6-4.7 4.8.5.4.3.5-.3.2-.6-.4-2.2.5-3.5 1.9l-2.4 2.6 4.3 3.9c2.3 2.2 4.2 4.4 4.2 4.9 0 .6.4 1 .9 1 .8 0 11.1 9.9 11.1 10.7 0 .9 6.4 5.8 7.3 5.5.5-.1.6.1.3.6-.7 1.2 14.8 16.4 15.9 15.5.4-.4.5-.3.2.3-.8 1.4 6.6 8.7 7.8 7.7.4-.5.5-.3.2.3-.8 1.4 3.6 5.7 4.8 4.7.4-.5.5-.3.2.3-.8 1.3 5.8 7.6 6.9 6.6.4-.4.4-.2.1.4-.8 1.3 10.6 12.7 11.7 11.7.4-.5.6-.3.4.2-.3 1.2 4.6 7.5 5.9 7.6.4 0 2.6 2.2 4.8 4.8 2.2 2.7 4.3 4.6 4.8 4.4.4-.2.7.1.7.7 0 1.4 6.1 6.6 7.3 6.2.5-.1.6.1.3.6s1.5 2.7 4 5c2.4 2.3 4.4 4.7 4.4 5.2 0 .6.6 1 1.3 1 .6.1 2.6 1.9 4.2 4 1.7 2.2 3.6 3.7 4.3 3.5.7-.3 1.1-.1.8.4-.3.4.7 2 2.3 3.4 1.6 1.4 3.1 3.1 3.3 3.9.4 1 .8 1 1.9.1 1-.8 1.9-.9 2.9-.1 1.2.8 1.2.9-.2.4-3.5-1.1-2.6 1.3 2.2 5.8 2.8 2.6 5 5.1 5 5.6 0 .6.4 1 .9 1 .9 0 7.1 5.7 7.1 6.5 0 .2 3.2 3.4 7.1 7.2 3.9 3.7 9.2 8.9 11.7 11.5 3.8 4.1 4.8 4.6 6.1 3.5 1.4-1.1 1.5-1 .1.7-1.2 1.6-1.3 2-.2 2.4.8.2 2.5 1.7 3.9 3.3 2.1 2.3 2.9 2.7 4.7 1.8 2-1 2-.9.2.5-1.8 1.5-1.8 1.6 1 3.9 1.6 1.4 5 4.5 7.5 7.1 2.5 2.5 5 4.2 5.4 3.8.5-.4.5-.2.2.4-.3.6 1.8 3.4 4.8 6.4 3 2.9 5.5 5.7 5.5 6.2s.5.6 1 .3 1-.1 1 .5c0 1.3 6.1 6.6 7.2 6.3.4-.2.7 0 .5.5-.3 1.2 6.5 8.2 7.5 7.6.5-.3.7-.1.6.4-.5 1.3 9.4 11.2 10.5 10.5.6-.3.8-.2.4.3-.3.5.1 1.8.9 2.9.8 1 1.4 1.5 1.4 1s.7.1 1.7 1.4c1.5 2.3 1.7 2.3 3 .6.7-1.1 1.3-1.6 1.3-1.2 0 .3 1-.4 2.3-1.6 1.3-1.2 2.1-2.8 1.8-3.6-.2-.8 0-1.2.6-.8 1.1.7 9-7.2 8.5-8.6-.1-.5.2-.6.6-.3 1.2.7 4.4-2.8 3.5-3.8-.5-.4-.3-.6.2-.4.6.2 2.3-.7 3.9-1.9 2.5-2 2.7-2.5 1.5-4-1.2-1.6-1.2-1.7.2-.6 1.3 1.1 2 .8 4-1.5 1.3-1.5 2.3-3.1 2.1-3.5-.1-.5.2-.6.6-.3 1.2.7 4.4-2.8 3.5-3.8-.5-.4-.3-.6.3-.4.6.2 4.1-2.5 7.7-6 4.6-4.4 6.4-6.8 6.1-8-.4-1.2-.3-1.3.3-.5.7.9 3.1-.9 8.6-6.6 4.2-4.4 7.7-7.7 7.7-7.5 0 .2 1-.7 2.3-1.9 1.3-1.2 2.1-2.8 1.8-3.6-.2-.8 0-1.2.6-.8 1.1.7 9-7.2 8.5-8.6-.1-.5.2-.6.6-.3 1.2.7 4.4-2.8 3.5-3.9-.5-.4-.3-.5.4-.2.6.4 2.8-1.2 5.1-3.8 2.2-2.5 4.5-4.5 5.2-4.5.7 0 1-.7.6-1.5-.3-.8 0-1.4.7-1.2.7.1 1.1-.4 1-1-.2-.7.1-1.2.5-1 1.1.3 7.2-5 6.5-5.7-.4-.3.1-.6 1-.6 2 0 2.2-1.1.5-3-1.1-1.2-1-1.2.3-.2s2 .7 4-1.6c1.3-1.5 2.3-3.1 2.1-3.5-.1-.5.2-.6.6-.3 1.2.7 4.4-2.8 3.5-3.8-.5-.4-.3-.6.2-.4.6.2 2.3-.7 3.9-1.9 2.5-2 2.7-2.5 1.5-4-1.2-1.6-1.2-1.7.2-.6 1.3 1.1 2 .8 4-1.5 1.3-1.5 2.3-3.1 2.1-3.5-.1-.5.2-.6.6-.3 1.2.7 4.4-2.8 3.5-3.8-.5-.4-.3-.6.3-.4.6.2 4.1-2.5 7.7-6 4.6-4.4 6.4-6.8 6.1-8-.4-1.2-.3-1.3.3-.5.7.9 3.1-.9 8.6-6.6 4.2-4.4 7.7-7.7 7.7-7.5 0 .2 1-.7 2.3-1.9 1.3-1.2 2.1-2.8 1.8-3.6-.2-.8 0-1.2.6-.8 1.1.7 9-7.2 8.5-8.6-.1-.5.2-.6.6-.3 1.2.7 4.4-2.8 3.5-3.8-.5-.4-.3-.6.2-.4.6.2 2.3-.7 3.9-1.9 2.5-2 2.7-2.5 1.5-4-1.2-1.6-1.2-1.7.2-.6 1.3 1.1 2 .8 4-1.5 1.3-1.5 2.3-3.1 2.1-3.5-.1-.5.2-.6.6-.3 1.2.7 4.4-2.8 3.5-3.8-.5-.4-.3-.6.3-.4.6.2 4.1-2.5 7.7-6 4.6-4.4 6.4-6.8 6.1-8-.4-1.1-.3-1.3.3-.5s1.9.1 4.6-2.4c3.3-3 3.7-3.7 2.5-5.1-1.1-1.5-1.1-1.5.3-.5 1.3 1.1 2 .8 4-1.5 1.3-1.5 2.3-3.1 2.1-3.5-.1-.5.2-.6.6-.3 1.2.7 4.4-2.8 3.5-3.9-.5-.4-.3-.5.3-.2.7.4 2.8-1.1 4.7-3.2 2-2.2 3.7-3.9 3.9-3.8.2.1-.4-.5-1.4-1.5-1-.9-1.8-2.1-1.8-2.7 0-1.1-1.5-1.5-3.5-1.1-.5.1-.7-.2-.2-.6.4-.4-1.2-2.7-3.5-5.1l-4.3-4.3 35.8-35.8c19.6-19.6 35.7-36.2 35.7-36.7C653 358.2 360.8 66 359.5 66c-.6 0-66.8 65.8-147.3 146.3zM137.5 440c-.3.5-1.2 1-1.8 1-.7 0-.6-.4.3-1 1.9-1.2 2.3-1.2 1.5 0zm1.5 3.4c0 .3-.4.8-1 1.1-.5.3-1 .1-1-.4 0-.6.5-1.1 1-1.1.6 0 1 .2 1 .4zm445.7 1.3c0 .8-.4 1-1.2.3-.7-.5-1.6-.6-2-.2-.5.4-.5.2-.2-.4.9-1.5 3.4-1.3 3.4.3zm-440.1 2.9c.1.9 0 1.3-.4 1-.3-.4-.7-1.4-.8-2.2-.1-.9 0-1.3.4-1 .3.4.7 1.4.8 2.2zm4.4-1.2c-.7.7-1.3.7-2 0-.6-.6-.3-1 1-1s1.6.4 1 1zm-10.3.9c0 .8-.6 1.4-1.4 1.4-.9 0-1-.4-.2-1.4.6-.7 1.2-1.3 1.4-1.3.1 0 .2.6.2 1.3zm431.6.2c-.3.9-.8 1.4-1 1.1-.3-.3-.2-.9.2-1.5.9-1.6 1.5-1.3.8.4zm-2.9.3c.3.5-.1.9-.9.9s-1.2-.4-.9-.9c.3-.4.7-.8.9-.8.2 0 .6.4.9.8zm9.1 1.1c.3.5.2 1.2-.3 1.5-.5.3-.9-.1-.9-.9 0-1.7.3-1.9 1.2-.6zm-6.2 2.6c-.3.9-.8 1.4-1 1.1-.3-.3-.2-.9.2-1.5.9-1.6 1.5-1.3.8.4zm-416.8.5c-.3.5-1.2 1-1.8 1-.7 0-.6-.4.3-1 1.9-1.2 2.3-1.2 1.5 0zm-5 2.8c-.3.3-1.1 0-1.8-.7-.9-1-.8-1.1.6-.5 1 .3 1.5.9 1.2 1.2zm9.9 2.2c-.5.5-1-.3-1.1-1.8-.1-2.2 0-2.4.9-.8.6 1 .6 2.2.2 2.6zm406.3-1.5c0 .8-.4 1.2-.9.9-.5-.3-.6-1-.3-1.5.9-1.3 1.2-1.1 1.2.6zm7.3.1c0 .8-1.9 1.3-2.4.6-.3-.5.1-.9.9-.9s1.5.2 1.5.3zm-409.6 3c.3.8.2 1.2-.4.9-.6-.3-1-1-1-1.6 0-1.4.7-1.1 1.4.7zm-11.6 1.9c-.3.3-.9-.2-1.2-1.2-.6-1.4-.5-1.5.5-.6.7.7 1 1.5.7 1.8zm9.3.2c1.2 1.6 1.2 1.7-.2.6-.9-.7-2-.9-2.4-.5-.5.4-.5.1-.1-.6.9-1.6 1.1-1.5 2.7.5zm396.6 1.8c0 .8-.4 1.2-.9.9-.5-.3-.6-1-.3-1.5.9-1.3 1.2-1.1 1.2.6zm-395.7.9c0 .2-.7.7-1.6 1-.8.3-1.2.2-.9-.4.6-1 2.5-1.4 2.5-.6zm391.1 1.3c1.3 1.6 1.2 1.7-.3.4-1-.7-1.8-1.5-1.8-1.7 0-.8.8-.3 2.1 1.3zm11.3-.8c-.3.4-.9.6-1.2.6-.4 0-1.2.3-1.8.7-.6.4-1.1.1-1.1-.5 0-.7 1.1-1.3 2.3-1.3 1.3 0 2.1.2 1.8.5zM148 467.6c0 .8-1.9 1.3-2.4.6-.3-.5.1-.9.9-.9s1.5.2 1.5.3zm405.5.4c.3.6-.1.7-.9.4-1.8-.7-2.1-1.4-.7-1.4.6 0 1.3.4 1.6 1zm-381 2c.3.5.1 1-.4 1-.6 0-1.1-.5-1.1-1 0-.6.2-1 .4-1 .3 0 .8.4 1.1 1zm388-.1c.3.5.2 1.2-.3 1.5-.5.3-.9-.1-.9-.9 0-1.7.3-1.9 1.2-.6zm4 .9c-.3.3-1.1 0-1.8-.7-.9-1-.8-1.1.6-.5 1 .3 1.5.9 1.2 1.2zm-395.7 1.7c-.3.3-.9-.2-1.2-1.2-.6-1.4-.5-1.5.5-.6.7.7 1 1.5.7 1.8zm6 4c-.3.3-.9-.2-1.2-1.2-.6-1.4-.5-1.5.5-.6.7.7 1 1.5.7 1.8zm6 0c-.3.3-.9-.2-1.2-1.2-.6-1.4-.5-1.5.5-.6.7.7 1 1.5.7 1.8zm384.7-.5c.3.6-.1.7-.9.4-1.8-.7-2.1-1.4-.7-1.4.6 0 1.3.4 1.6 1zm-408 2c-.3.5-1.2 1-1.8 1-.7 0-.6-.4.3-1 1.9-1.2 2.3-1.2 1.5 0zm384 0c-.3.5-1.2 1-1.8 1-.7 0-.6-.4.3-1 1.9-1.2 2.3-1.2 1.5 0zm-357.4 2.7c1.2 1.6 1.2 1.7-.2.6-.9-.7-2-.9-2.4-.5-.5.4-.5.1-.1-.6.9-1.6 1.1-1.5 2.7.5zm.5 3.5c.3.4-.1.5-1 .4-.8-.1-1.8-.5-2.2-.8-.3-.4.1-.5 1-.4.8.1 1.8.5 2.2.8zm3.9 1.8c.2 1.2.1 2-.2 1.6-.4-.4-.8-1.6-1-2.8-.4-2.8.6-1.8 1.2 1.2zm344.2.5c0 .8-.4 1.2-.9.9-.5-.3-.6-1-.3-1.5.9-1.3 1.2-1.1 1.2.6zm7.8-.6c.3.5.2 1.2-.3 1.5-.5.3-.9-.1-.9-.9 0-1.7.3-1.9 1.2-.6zm4 .9c-.3.3-1.1 0-1.8-.7-.9-1-.8-1.1.6-.5 1 .3 1.5.9 1.2 1.2zm-367.6 2.5c.8 1 .7 1.4-.2 1.4-.8 0-1.4-.6-1.4-1.4 0-.7.1-1.3.2-1.3.2 0 .8.6 1.4 1.3zm4.1.7c0 .5-.2 1-.4 1-.3 0-.8-.5-1.1-1-.3-.6-.1-1 .4-1 .6 0 1.1.4 1.1 1zm15.8 2.5c-.3.3-.9-.2-1.2-1.2-.6-1.4-.5-1.5.5-.6.7.7 1 1.5.7 1.8zm-11.3-.5c.3.6-.1.7-.9.4-1.8-.7-2.1-1.4-.7-1.4.6 0 1.3.4 1.6 1zm359-.1c.3.5.2 1.2-.3 1.5-.5.3-.9-.1-.9-.9 0-1.7.3-1.9 1.2-.6zm-371 2.1c-.3.5-1.2 1-1.8 1-.7 0-.6-.4.3-1 1.9-1.2 2.3-1.2 1.5 0zm347.2 3.5c0 .8-.4 1.2-.9.9-.5-.3-.6-1-.3-1.5.9-1.3 1.2-1.1 1.2.6zm6.3 2.5c0 .5-.5 1-1.1 1-.5 0-.7-.5-.4-1 .3-.6.8-1 1.1-1 .2 0 .4.4.4 1zm-5.5 2c.3.6-.1.7-.9.4-1.8-.7-2.1-1.4-.7-1.4.6 0 1.3.4 1.6 1zm7.5.4c0 .2-.8 1-1.7 1.7-1.6 1.3-1.7 1.2-.4-.4 1.3-1.6 2.1-2.1 2.1-1.3zm-328.5 2.5c.3.5.2 1.2-.3 1.5-.5.3-.9-.1-.9-.9 0-1.7.3-1.9 1.2-.6zm9.9 1.7c.3.8.2 1.2-.4.9-.6-.3-1-1-1-1.6 0-1.4.7-1.1 1.4.7zm-18.4 1c0 .8-1.9 1.3-2.4.6-.3-.5.1-.9.9-.9s1.5.2 1.5.3zm334.1 1.7c-1 .9-1.1.8-.5-.6.3-1 .9-1.5 1.2-1.2.3.3 0 1.1-.7 1.8zm-17.4 1.9c.2 1.7 0 1.9-.7.8-.5-.8-.6-1.8-.4-2.2.8-1.2 1-1 1.1 1.4zm3.6.3c-.7 2.1-1.2 1.9-1-.4 0-1.1.5-1.8.9-1.5.4.3.5 1.1.1 1.9zm-321.2.2c1.3 1.6 1.2 1.7-.3.4-1-.7-1.8-1.5-1.8-1.7 0-.8.8-.3 2.1 1.3zm312.3.1c.3.5-.1.9-.9.9s-1.2-.4-.9-.9c.3-.4.7-.8.9-.8.2 0 .6.4.9.8zm-309.1 3.7c-.3.9-.8 1.4-1 1.1-.3-.3-.2-.9.2-1.5.9-1.6 1.5-1.3.8.4zm312 0c-.3.9-.8 1.4-1 1.1-.3-.3-.2-.9.2-1.5.9-1.6 1.5-1.3.8.4zm-287.7.7c.4.7.4 1-.1.6-.4-.4-1.5-.2-2.4.5-1.4 1.1-1.4 1-.2-.6 1.6-2 1.8-2.1 2.7-.5zm306.4.3c0 .2-.9.3-1.9.2-1.1 0-1.8-.5-1.5-.9.4-.6 3.4 0 3.4.7zm-302 1.1c0 .8-1.9 1.3-2.4.6-.3-.5.1-.9.9-.9s1.5.2 1.5.3zm277.7 1.9c0 .8-.4 1.2-.9.9-.5-.3-.6-1-.3-1.5.9-1.3 1.2-1.1 1.2.6zm7.3.1c0 .8-1.9 1.3-2.4.6-.3-.5.1-.9.9-.9s1.5.2 1.5.3zm-279.2 4.9c-.3.3-.9-.2-1.2-1.2-.6-1.4-.5-1.5.5-.6.7.7 1 1.5.7 1.8zm-24.1 1c0 .8-.4 1.2-.9.9-.5-.3-.6-1-.3-1.5.9-1.3 1.2-1.1 1.2.6zm288 1c0 .8-.4 1.2-.9.9-.5-.3-.6-1-.3-1.5.9-1.3 1.2-1.1 1.2.6zm-274.6 2.8c-1 .9-1.1.8-.5-.6.3-1 .9-1.5 1.2-1.2.3.3 0 1.1-.7 1.8zm6-.6c1.2 1.6 1.2 1.7-.2.6-.9-.7-2-.9-2.4-.5-.5.4-.5.1-.1-.6.9-1.6 1.1-1.5 2.7.5zm264 0c1.3 1.6 1.2 1.7-.3.4-1-.7-1.8-1.5-1.8-1.7 0-.8.8-.3 2.1 1.3zm11.3-.8c-.3.4-.9.6-1.2.6-.4 0-1.2.3-1.8.7-.6.4-1.1.1-1.1-.5 0-.7 1.1-1.3 2.3-1.3 1.3 0 2.1.2 1.8.5zm-9.9 4.1c.3.6-.1.7-.9.4-1.8-.7-2.1-1.4-.7-1.4.6 0 1.3.4 1.6 1zm-268 2c-.3.5-1.2 1-1.8 1-.7 0-.6-.4.3-1 1.9-1.2 2.3-1.2 1.5 0zm275-.1c.3.5.2 1.2-.3 1.5-.5.3-.9-.1-.9-.9 0-1.7.3-1.9 1.2-.6zm4 .9c-.3.3-1.1 0-1.8-.7-.9-1-.8-1.1.6-.5 1 .3 1.5.9 1.2 1.2zm-268 2.1c.3.5.2 1.2-.3 1.5-.5.3-.9-.1-.9-.9 0-1.7.3-1.9 1.2-.6zm9.9 1.7c.3.8.2 1.2-.4.9-.6-.3-1-1-1-1.6 0-1.4.7-1.1 1.4.7zm-21.4.8c0 .2-.7.7-1.6 1-.8.3-1.2.2-.9-.4.6-1 2.5-1.4 2.5-.6zm280.5.6c.3.6-.1.7-.9.4-1.8-.7-2.1-1.4-.7-1.4.6 0 1.3.4 1.6 1zm-24 2c-.3.5-1.2 1-1.8 1-.7 0-.6-.4.3-1 1.9-1.2 2.3-1.2 1.5 0zM229 544.5c-.5.7-.9 1.4-.7 1.6.1.2 0 .3-.2.1-1.1-.7-.7-2.9.5-2.9.9 0 1.1.4.4 1.2zm17.8 4c-.3.3-.9-.2-1.2-1.2-.6-1.4-.5-1.5.5-.6.7.7 1 1.5.7 1.8zm5.7-.5c.3.5.1 1-.4 1-.6 0-1.1-.5-1.1-1 0-.6.2-1 .4-1 .3 0 .8.4 1.1 1zm216.2 2.5c0 .8-.4 1.2-.9.9-.5-.3-.6-1-.3-1.5.9-1.3 1.2-1.1 1.2.6zm7.8-.6c.3.5.2 1.2-.3 1.5-.5.3-.9-.1-.9-.9 0-1.7.3-1.9 1.2-.6zm4 .9c-.3.3-1.1 0-1.8-.7-.9-1-.8-1.1.6-.5 1 .3 1.5.9 1.2 1.2zm-232 2.2c1 1.1 1.6 2 1.3 2-.3 0-1.3-.9-2.3-2-1-1.1-1.6-2-1.3-2 .3 0 1.3.9 2.3 2zm4.5-.5c-.5.7-.9 1.4-.7 1.6.1.2 0 .3-.2.1-1.1-.7-.7-2.9.5-2.9.9 0 1.1.4.4 1.2zm-6.9 4.8c-1 .9-1.1.8-.5-.6.3-1 .9-1.5 1.2-1.2.3.3 0 1.1-.7 1.8zm15.4-1.3c.3.6-.1.7-.9.4-1.8-.7-2.1-1.4-.7-1.4.6 0 1.3.4 1.6 1zm219-.1c.3.5.2 1.2-.3 1.5-.5.3-.9-.1-.9-.9 0-1.7.3-1.9 1.2-.6zm-233.1 3.9c.3.5-.1.9-.9.9s-1.2-.4-.9-.9c.3-.4.7-.8.9-.8.2 0 .6.4.9.8zm209.3 1.7c0 .8-.4 1.2-.9.9-.5-.3-.6-1-.3-1.5.9-1.3 1.2-1.1 1.2.6zm-195.2.5c.3.6-.1.7-.9.4-1.8-.7-2.1-1.4-.7-1.4.6 0 1.3.4 1.6 1zm5 2c.3.5.1 1-.4 1-.6 0-1.1-.5-1.1-1 0-.6.2-1 .4-1 .3 0 .8.4 1.1 1zm196.5 0c0 .5-.5 1-1.1 1-.5 0-.7-.5-.4-1 .3-.6.8-1 1.1-1 .2 0 .4.4.4 1zm-5.5 2c.3.6-.1.7-.9.4-1.8-.7-2.1-1.4-.7-1.4.6 0 1.3.4 1.6 1zm7.5.4c0 .2-.8 1-1.7 1.7-1.6 1.3-1.7 1.2-.4-.4 1.3-1.6 2.1-2.1 2.1-1.3zM265.5 568c.3.6-.1.7-.9.4-1.8-.7-2.1-1.4-.7-1.4.6 0 1.3.4 1.6 1zm-16.8 1.5c0 .8-.4 1.2-.9.9-.5-.3-.6-1-.3-1.5.9-1.3 1.2-1.1 1.2.6zm213.4 3.8c-1 .9-1.1.8-.5-.6.3-1 .9-1.5 1.2-1.2.3.3 0 1.1-.7 1.8zm-183.6 1.5c-.3.3-1.1 0-1.8-.7-.9-1-.8-1.1.6-.5 1 .3 1.5.9 1.2 1.2zm166.3-.6c-.2.7.4 1.3 1.2 1.3.8 0 1.4-.6 1.2-1.3-.1-.8.2-1.1.9-.7.8.5.6 1.2-.5 2.3-1.2 1.2-1.8 1.3-3 .3-.9-.8-1.3-1.7-1-2.2.8-1.3 1.4-1.1 1.2.3zm15.6 1.6c.3.5-.1.9-.9.9s-1.2-.4-.9-.9c.3-.4.7-.8.9-.8.2 0 .6.4.9.8zm-7.4 1.6c0 .2-.7.7-1.6 1-.8.3-1.2.2-.9-.4.6-1 2.5-1.4 2.5-.6zM281.5 580c-.3.5-1.2 1-1.8 1-.7 0-.6-.4.3-1 1.9-1.2 2.3-1.2 1.5 0zm-5 2.8c-.3.3-1.1 0-1.8-.7-.9-1-.8-1.1.6-.5 1 .3 1.5.9 1.2 1.2zm9.9-.2c.3.8.2 1.2-.4.9-.6-.3-1-1-1-1.6 0-1.4.7-1.1 1.4.7zm150.3-.1c0 .8-.4 1.2-.9.9-.5-.3-.6-1-.3-1.5.9-1.3 1.2-1.1 1.2.6zm7.8-.6c.3.5.2 1.2-.3 1.5-.5.3-.9-.1-.9-.9 0-1.7.3-1.9 1.2-.6zm5.8 1.4c.4-.3.7-.4.7 0 0 1.7-2 1.4-3.6-.6-1.9-2.2-1.9-2.2.2-.4 1.1.9 2.4 1.4 2.7 1zm4.3.2c-.1.8-.5 1.7-.8 2.1-.5.4-.4-1.6.1-3.4.3-.9.9.1.7 1.3zm-182.1 1.3c-.3.3-1.1 0-1.8-.7-.9-1-.8-1.1.6-.5 1 .3 1.5.9 1.2 1.2zm17.9 1.8c.3.8.2 1.2-.4.9-.6-.3-1-1-1-1.6 0-1.4.7-1.1 1.4.7zm-20.3 2.7c-1 .9-1.1.8-.5-.6.3-1 .9-1.5 1.2-1.2.3.3 0 1.1-.7 1.8zm8.9-1.3c0 .5-.5 1-1.1 1-.5 0-.7-.5-.4-1 .3-.6.8-1 1.1-1 .2 0 .4.4.4 1zm9.1.7c1.2 1.6 1.2 1.7-.2.6-.9-.7-2-.9-2.4-.5-.5.4-.5.1-.1-.6.9-1.6 1.1-1.5 2.7.5zm4.4 1.2c.3.5.2 1.2-.3 1.5-.5.3-.9-.1-.9-.9 0-1.7.3-1.9 1.2-.6zm132.2 3.6c0 .8-.4 1.2-.9.9-.5-.3-.6-1-.3-1.5.9-1.3 1.2-1.1 1.2.6zm-126 1c0 .8-.4 1.2-.9.9-.5-.3-.6-1-.3-1.5.9-1.3 1.2-1.1 1.2.6zm-22.2 2.5c.1 3-.7 3.2-1.1.3-.2-1.4.3-3.3.9-3.3.1 0 .2 1.3.2 3zm154.5-1c0 .5-.5 1-1.1 1-.5 0-.7-.5-.4-1 .3-.6.8-1 1.1-1 .2 0 .4.4.4 1zm-130.6 1.9c.3.5-.2 1.5-1.2 2.2-1.5 1.2-1.6 1.2-.5-.2.7-.9 1-1.9.6-2.2-.3-.4-.4-.7 0-.7.3 0 .8.4 1.1.9zm125.1.1c.3.6-.1.7-.9.4-1.8-.7-2.1-1.4-.7-1.4.6 0 1.3.4 1.6 1zm7.5.4c0 .2-.8 1-1.7 1.7-1.6 1.3-1.7 1.2-.4-.4 1.3-1.6 2.1-2.1 2.1-1.3zm-124.2 6.1c-.3.3-.9-.2-1.2-1.2-.6-1.4-.5-1.5.5-.6.7.7 1 1.5.7 1.8zm121.3.8c-1 .9-1.1.8-.5-.6.3-1 .9-1.5 1.2-1.2.3.3 0 1.1-.7 1.8zm-17.4 1.9c.2 1.7 0 1.9-.7.8-.5-.8-.6-1.8-.4-2.2.8-1.2 1-1 1.1 1.4zm3.6.3c-.7 2.1-1.2 1.9-1-.4 0-1.1.5-1.8.9-1.5.4.3.5 1.1.1 1.9zm-104.2 1.2c1.2 1.6 1.2 1.7-.2.6-.9-.7-2-.9-2.4-.5-.5.4-.5.1-.1-.6.9-1.6 1.1-1.5 2.7.5zm95.3-.9c.3.5-.1.9-.9.9s-1.2-.4-.9-.9c.3-.4.7-.8.9-.8.2 0 .6.4.9.8zm2.9 3.7c-.3.9-.8 1.4-1 1.1-.3-.3-.2-.9.2-1.5.9-1.6 1.5-1.3.8.4zm-118.3.1c0 .8-1.9 1.3-2.4.6-.3-.5.1-.9.9-.9s1.5.2 1.5.3zm20.6.6c.3.4-.1.5-1 .4-.8-.1-1.8-.5-2.2-.8-.3-.4.1-.5 1-.4.8.1 1.8.5 2.2.8zm3.9-.2c.3.5.1 1-.4 1-.6 0-1.1-.5-1.1-1 0-.6.2-1 .4-1 .3 0 .8.4 1.1 1zm112.5.5c0 .2-.9.3-1.9.2-1.1 0-1.8-.5-1.5-.9.4-.6 3.4 0 3.4.7zm-24.3 3c0 .8-.4 1.2-.9.9-.5-.3-.6-1-.3-1.5.9-1.3 1.2-1.1 1.2.6zm-108.7.1c0 .8-1.9 1.3-2.4.6-.3-.5.1-.9.9-.9s1.5.2 1.5.3zm116 0c0 .8-1.9 1.3-2.4.6-.3-.5.1-.9.9-.9s1.5.2 1.5.3zm-107.1 1.7c.8 1 .7 1.4-.2 1.4-.8 0-1.4-.6-1.4-1.4 0-.7.1-1.3.2-1.3.2 0 .8.6 1.4 1.3zm4.1.7c0 .5-.2 1-.4 1-.3 0-.8-.5-1.1-1-.3-.6-.1-1 .4-1 .6 0 1.1.4 1.1 1zm8.5 0c.3.6-.1.7-.9.4-1.8-.7-2.1-1.4-.7-1.4.6 0 1.3.4 1.6 1zm7.3 2.5c-.3.3-.9-.2-1.2-1.2-.6-1.4-.5-1.5.5-.6.7.7 1 1.5.7 1.8zm71.9 2c0 .8-.4 1.2-.9.9-.5-.3-.6-1-.3-1.5.9-1.3 1.2-1.1 1.2.6zm-4.6 2.2c1.3 1.6 1.2 1.7-.3.4-1.7-1.3-2.2-2.1-1.4-2.1.2 0 1 .8 1.7 1.7zm11.3-.8c-.3.4-.9.6-1.2.6-.4 0-1.2.3-1.8.7-.6.4-1.1.1-1.1-.5 0-.7 1.1-1.3 2.3-1.3 1.3 0 2.1.2 1.8.5zm-9.9 4.1c.3.6-.1.7-.9.4-1.8-.7-2.1-1.4-.7-1.4.6 0 1.3.4 1.6 1zm7 1.9c.3.5.2 1.2-.3 1.5-.5.3-.9-.1-.9-.9 0-1.7.3-1.9 1.2-.6zm4 .9c-.3.3-1.1 0-1.8-.7-.9-1-.8-1.1.6-.5 1 .3 1.5.9 1.2 1.2zm-85.1 1c.3.5-.1.9-.9.9s-1.2-.4-.9-.9c.3-.4.7-.8.9-.8.2 0 .6.4.9.8zm19 2.8c.3.8.2 1.2-.4.9-.6-.3-1-1-1-1.6 0-1.4.7-1.1 1.4.7zm-18.4 1c0 .8-1.9 1.3-2.4.6-.3-.5.1-.9.9-.9s1.5.2 1.5.3zm85.5.4c.3.6-.1.7-.9.4-1.8-.7-2.1-1.4-.7-1.4.6 0 1.3.4 1.6 1zm-65.1 1.9c.3.5-.2 1.5-1.2 2.2-1.5 1.2-1.6 1.2-.5-.2.7-.9 1-1.9.6-2.2-.3-.4-.4-.7 0-.7.3 0 .8.4 1.1.9zm41.1.1c-.3.5-1.2 1-1.8 1-.7 0-.6-.4.3-1 1.9-1.2 2.3-1.2 1.5 0zm-48 8c-.3.5-1.2 1-1.8 1-.7 0-.6-.4.3-1 1.9-1.2 2.3-1.2 1.5 0zm39.2.5c0 .8-.4 1.2-.9.9-.5-.3-.6-1-.3-1.5.9-1.3 1.2-1.1 1.2.6zm7.8-.6c.3.5.2 1.2-.3 1.5-.5.3-.9-.1-.9-.9 0-1.7.3-1.9 1.2-.6zm4 .9c-.3.3-1.1 0-1.8-.7-.9-1-.8-1.1.6-.5 1 .3 1.5.9 1.2 1.2zm-35.6.5c.8 1 .7 1.4-.2 1.4-.8 0-1.4-.6-1.4-1.4 0-.7.1-1.3.2-1.3.2 0 .8.6 1.4 1.3zm-12.3 3.3c.1.9 0 1.3-.4 1-.3-.4-.7-1.4-.8-2.2-.1-.9 0-1.3.4-1 .3.4.7 1.4.8 2.2zm30.8-.8c.3.5-.1.9-.9.9s-1.2-.4-.9-.9c.3-.4.7-.8.9-.8.2 0 .6.4.9.8zm-34.4 1.6c0 .2-.7.7-1.6 1-.8.3-1.2.2-.9-.4.6-1 2.5-1.4 2.5-.6zm51.5.5c.3.5.2 1.2-.3 1.5-.5.3-.9-.1-.9-.9 0-1.7.3-1.9 1.2-.6zm-31.9 1.6c-.1.8-.5 1.7-.8 2.1-.5.4-.4-1.6.1-3.4.3-.9.9.1.7 1.3zm16 0c-.1.8-.8 2.1-1.6 2.8-1 1-1.1.9-.4-.3.5-.8.9-1.8 1-2.3.3-1.4.4-1.7.8-1.7.2 0 .3.7.2 1.5zm-11.1.5c-.3.5-1.2 1-1.8 1-.7 0-.6-.4.3-1 1.9-1.2 2.3-1.2 1.5 0zm-13 2.9c.3.5.2 1.2-.3 1.5-.5.3-.9-.1-.9-.9 0-1.7.3-1.9 1.2-.6zm4.5.5c0 .2-.7.7-1.6 1-.8.3-1.2.2-.9-.4.6-1 2.5-1.4 2.5-.6zm-4 3c0 .2-.8 1-1.7 1.7-1.6 1.3-1.7 1.2-.4-.4 1.3-1.6 2.1-2.1 2.1-1.3zm19.8 4.1c-.3.3-.9-.2-1.2-1.2-.6-1.4-.5-1.5.5-.6.7.7 1 1.5.7 1.8zm1.3 4.8c-1 .9-1.1.8-.5-.6.3-1 .9-1.5 1.2-1.2.3.3 0 1.1-.7 1.8zm-1.1 7.2c0 .2-.9.3-1.9.2-1.1 0-1.8-.5-1.5-.9.4-.6 3.4 0 3.4.7z"/></svg>