<svg version="1" xmlns="http://www.w3.org/2000/svg" width="933.333" height="933.333" viewBox="0 0 700.000000 700.000000"><path d="M214.4 210.9C134.6 290.4 68.5 356.5 67.5 357.8l-1.9 2.3 35.9 35.9 36 36-7.5 7.5-7.5 7.5L241 565.5 359.5 684 478 565.5 596.5 447l-7.5-7.5-7.5-7.5 35.8-35.8c19.6-19.6 35.7-36.2 35.7-36.8 0-.6-66-66.8-146.7-147.1l-146.8-146-145.1 144.6zm276.8 17.7l130.7 131-27.9 27.9-28 28-68.3-68c-37.5-37.4-84-83.7-103.2-102.8l-35.1-34.8-103.3 102.7-103.3 102.7-27.9-27.9L97 359.6l130.8-131.2c71.9-72.1 131.2-131.1 131.7-131 .6 0 59.8 59.1 131.7 131.2zM430 311.5l57.5 57.5-.1 12.7c0 7.1-.7 16.2-1.4 20.3l-1.2 7.5-48.7 48.6-48.6 48.7-7.5 1.3c-9.6 1.7-31.4 1.7-40.9 0l-7.4-1.3-39-38.7c-21.4-21.2-43.4-43.4-48.8-49.2-9.7-10.5-9.8-10.6-11-17.5-.6-3.8-1.2-12.7-1.2-19.7l-.1-12.8 57.5-57.5 57.4-57.4h26l57.5 57.5zM278.5 485l81 81 81.2-81.2 81.3-81.3 14 14 14 14-95.2 95.2-95.3 95.3-95.2-95.2-95.3-95.3 13.7-13.7c7.6-7.6 14-13.8 14.3-13.8.3 0 37 36.5 81.5 81z"/></svg>