<?xml version="1.0" encoding="UTF-8" standalone="no"?><!DOCTYPE svg PUBLIC "-//W3C//DTD SVG 1.1//EN" "http://www.w3.org/Graphics/SVG/1.1/DTD/svg11.dtd"><svg width="100%" height="100%" viewBox="0 0 114 67" version="1.1" xmlns="http://www.w3.org/2000/svg" xmlns:xlink="http://www.w3.org/1999/xlink" xml:space="preserve" style="fill-rule:evenodd;clip-rule:evenodd;stroke-linejoin:round;stroke-miterlimit:1.41421;"><path id="Unselected-Layer" d="M1.277,33.637l55.426,-32l55.425,32l-55.425,32l-55.426,-32Z" style="fill:url(#_Linear1);"/><path d="M56.726,1.326l0.046,0.007l0.044,0.014l0.042,0.021l0.08,0.046l11.379,6.552l14.452,8.3l13.818,7.923l9.476,5.425l0.025,-0.042l6.29,3.632l0.073,0.049l0.062,0.061l0.052,0.071l0.038,0.079l0.024,0.085l0.009,0.088l-0.006,0.089l-0.022,0.086l-0.036,0.081l-0.05,0.074l-0.063,0.065l-0.073,0.052l-3.156,1.851l-14.495,8.524l-14.908,8.749l-6.791,3.966l-5.912,3.431l-8.059,4.634l-1.948,1.116l-0.112,0.053l-0.118,0.036l-0.123,0.017l-0.123,0l-0.122,-0.019l-0.118,-0.037l-0.11,-0.054l-6.962,-4.055l-21.874,-12.783l-26.411,-15.473l-0.066,-0.047l-0.057,-0.057l-0.047,-0.066l-0.034,-0.074l-0.021,-0.078l-0.007,-0.081l0.007,-0.08l0.021,-0.079l0.022,-0.046l0.012,-0.027l0.047,-0.067l0.057,-0.057l0.066,-0.046l0.881,-0.505l25.599,-14.682l16.864,-9.684l12.158,-6.998l0.042,-0.02l0.045,-0.013l0.046,-0.007l0.047,0Zm-0.023,0.671l-12.501,7.218l0.002,0.021l-16.628,9.654l-25.2,14.646l-0.167,0.097l25.512,14.51l21.624,12.331l7.358,4.212l0,-0.003l2.404,-1.388l0,-0.012l7.916,-4.589l5.825,-3.346l6.706,-3.826l14.771,-8.386l14.407,-8.163l2.38,-1.352l-5.41,-3.172l-9.319,-5.427l-13.609,-7.911l-14.252,-8.273l-11.237,-6.505l-0.582,-0.336l0,0Z"/><defs><linearGradient id="_Linear1" x1="0" y1="0" x2="1" y2="0" gradientUnits="userSpaceOnUse" gradientTransform="matrix(4.32525e-15,70.6367,-70.6367,4.32525e-15,56.7025,-4.99942)"><stop offset="0" style="stop-color:#fff;stop-opacity:0.501961"/><stop offset="0.15" style="stop-color:#d9d9d6;stop-opacity:0.596078"/><stop offset="0.33" style="stop-color:#bbbab5;stop-opacity:0.67451"/><stop offset="1" style="stop-color:#b0afa9;stop-opacity:0.701961"/></linearGradient></defs></svg>