<?xml version="1.0" encoding="UTF-8" standalone="no"?>
<!DOCTYPE svg PUBLIC "-//W3C//DTD SVG 1.1//EN" "http://www.w3.org/Graphics/SVG/1.1/DTD/svg11.dtd">
<svg width="100%" height="100%" viewBox="0 0 550 392" preserveAspectRatio="none" version="1.1" xmlns="http://www.w3.org/2000/svg" xmlns:xlink="http://www.w3.org/1999/xlink" xml:space="preserve" style="fill-rule:evenodd;clip-rule:evenodd;stroke-linejoin:round;stroke-miterlimit:1.41421;">
    <g transform="matrix(1.02095,0,0,1.85022,-20.6466,-994.003)">
        <path d="M558.725,697.982C556.965,698.433 553.806,696.387 553.003,694.304C552.376,692.676 554.544,688.612 553.796,685.823C553.021,682.932 550.181,681.662 550.03,679.896C549.769,676.849 553.323,674.467 553.346,671.702C551.276,672.55 551.345,670.983 550.794,670.114C552.414,663.32 548.476,663.058 548.989,656.137C550.681,655.726 549.478,658.585 551.546,657.738C551.017,653.12 550.89,651.356 550.318,647.552C547.581,647.53 548.305,650.548 547.09,651.855C544.521,647.53 540.876,644.401 536.562,642.003C539.73,641.354 542.657,640.466 543.472,637.377C544.586,634.008 542.114,633.108 540.707,630.786C540.5,628.722 542.196,628.666 541.675,626.273C539.52,625.443 538.289,623.597 535.519,623.461C541.749,622.866 544.619,618.74 550.204,617.519C547.222,616.877 546.349,611.064 543.115,608.8C544.282,605.964 550.33,608.336 548.699,602.554C547.001,601.45 544.326,601.448 542.635,600.346C542.856,596.87 541.655,594.992 541.006,592.494C542.117,588.757 547.428,587.191 544.436,580.981C540.263,578.749 536.556,581.028 534.625,583.141C532.776,582.484 531.972,580.645 531.466,578.465C527.109,576.018 519.131,576.788 514.552,575.901C514.081,571.384 519.349,574.525 520.796,573.507C515.533,566.681 502.988,570.807 495.903,567.535C493.748,566.989 494.728,570.004 493.117,570.083C490.121,568.628 493.102,568.437 492.412,564.834C498.357,564.131 502.9,569.009 508.42,565.929C510.029,565.877 509.923,567.82 510.812,568.612C512.962,568.107 513.052,565.298 516.448,566.193C510.809,558.506 498.59,557.935 490.507,556.937C488.928,556.536 488.862,554.366 488.153,552.952C486.368,556.566 485.571,549.323 483.617,551.537C482.061,553.353 480.967,555.719 480.951,559.337C478.827,560.667 477.23,558.792 475.316,559.881C474.71,559.134 475.222,554.216 475.774,552.677C477.857,552.022 476.698,555.155 478.616,554.703C479.194,551.947 480.559,550.114 481.292,547.554C485.478,547.89 488.434,552.925 492.066,551.744C488.871,548.019 484.723,543.535 479.003,544.884C478.546,546.701 477.723,548.091 477.415,550.09C476.293,550.067 475.174,550.044 474.05,550.021C473.809,553.737 473.814,556.269 472.493,559.827C458.064,559.817 443.409,557.598 429.232,560.532C422.855,561.852 412.04,566.472 402.199,565.467C407.404,562.171 413.713,562.33 420.227,562.401C415.69,558.48 405.853,562.517 399.51,562.789C398.525,564.086 399.523,563.63 399.4,565.427C397.242,566.35 398.403,563.601 396.658,564.068C395.176,568.459 388.21,565.957 383.66,566.489C386.117,564.928 390.533,565.864 392.745,564.007C389.921,559.418 382.08,562.479 377.179,562.402C353.212,562.024 328.719,566.277 304.418,568.103C302.681,567.005 306.375,567.449 305.828,565.55C283.687,568.934 262.045,569.346 239.777,568.407C239.877,566.656 242.81,569.434 242.326,566.754C238.599,566.184 236.877,568.08 234.407,566.329C237.062,563.759 242.673,565.952 246.084,564.586C242.344,562.46 236.557,564.051 232.055,563.324C245.945,561.625 259.176,561.524 273.118,561.634C274.336,561.638 273.053,563.977 273.227,564.958C274.381,562.894 277.944,559.511 282.021,562.447C281.967,565.233 277.712,561.743 277.779,564.718C281.982,564.215 286.814,564.62 290.852,563.832C291.582,561.396 290.559,560.648 290.938,558.544C281.208,560.417 270.063,558.872 260.71,557.701C243.251,555.514 224.261,556.556 206.016,555.654C204.789,555.545 204.358,554.793 204.725,553.403C203.51,553.569 202.608,554.286 202.026,555.562C186.321,554.85 170.747,552.824 155.162,550.617C155.803,549.412 157.971,551.202 157.931,548.67C154.298,546.46 153.581,549.962 151.588,550.962C146.598,549.841 144.55,549.151 140.215,549.614C141.221,545.352 144.454,545.663 145.21,540.919C135.359,534.757 123.451,536.579 121.876,547.664C113.091,545.553 105.314,549.414 98.782,545.153C97.338,543.862 97.448,546.157 97.017,547.217C87.63,544.038 79.272,548.112 72.379,546.878C73.323,542.521 78.523,543.856 78.473,540.547C71.476,541.058 65.072,542.879 59.876,547.856C59.211,546.251 60.726,543.595 58.361,542.802C56.742,546.251 56.108,547.89 54.261,552.12C55.801,553.547 55.614,550.468 56.959,551.364C55.339,558.1 51.823,557.161 51.168,564.104C50.421,564.762 49.999,566.272 48.448,564.834C47.618,567.464 50.008,570.81 48.838,573.622C48.16,575.251 45.261,575.585 43.669,578.084C42.134,580.496 42.774,585.017 41.701,586.364C40.328,588.087 36.856,589.032 35.435,588.049C35.736,590.745 35.56,593.655 38.989,594.972C37.476,596.661 34.789,595.342 33.942,598.75C34.841,601.365 37.987,603.009 39.586,605.303C38.089,609.584 35.472,612.549 34.772,618.545C39.119,622.795 40.686,623.765 45.991,628.432C45.51,628.924 44.643,628.782 44.177,628.986C41.027,629.529 37.975,630.274 35.865,631.651C35.526,633.878 34.836,635.8 32.903,636.668C32.045,635.967 30.913,635.273 29.609,634.821C28.99,632.693 27.786,630.811 26.19,629.087C26.732,630.828 26.982,632.694 27.668,634.373C25.921,634.163 23.993,634.465 22.061,635.704C19.495,642.254 25.409,643.148 26.999,646.729C26.569,649.291 25.49,651.306 26.105,654.735C24.424,656.037 21.575,656.372 19.896,657.686C18.825,663.64 24.976,660.521 26.523,663.198C23.35,665.843 23.098,671.728 20.042,672.745C26.052,673.247 29.515,676.998 36.089,676.884C33.208,677.333 32.121,679.313 29.966,680.394C29.687,682.835 31.459,682.691 31.471,684.766C30.265,687.239 27.812,688.429 29.344,691.644C32.193,698.756 46.068,692.031 47.493,700.979C47.45,703.627 44.719,703.932 45.354,707.162C51.306,707.505 51.568,712.406 54.005,715.959C60.877,714.037 71.966,707.7 76.971,716.222C69.828,724.548 58.222,717.345 51.573,726.759C59.269,727.197 68.812,729.026 76.966,726.741C78.792,729.978 86.389,729.492 89.399,729.004C89.371,726.235 86.529,726.907 85.504,725.36C147.429,717.356 209.423,719.821 271.664,721.044C271.001,723.806 271.025,726.807 274.727,726.416C276.697,724.001 273.131,721.979 274.058,721.117C279.523,720.979 285.799,721.956 289.016,722.232C289.293,726.159 290.231,729.367 293.277,730.279C295.503,726.726 290.957,723.797 292,721.663C299.383,722.696 307.958,723.982 312.347,722.26C301.83,719.571 290.73,719.925 280,718.658C281.152,717.991 280.798,715.641 281.749,714.752C302.766,715.596 323.711,716.144 344.746,715.806C345.615,716.192 346.215,716.861 346.554,717.816C350.7,715.47 357.778,718.634 361.004,721.349C336.789,719.433 312.673,717.706 288.365,717.593C298.232,719.735 309.037,719.46 318.923,719.803C323.489,719.961 329.005,720.17 332.135,723.434C328.912,723.664 327.547,722.118 325.536,723.931C344.16,725.718 362.822,727.82 381.482,728.756C402.124,729.791 422.937,730.538 442.915,734.304C443.777,734.466 445.575,734.776 446.589,734.809C460.403,735.252 473.041,735.787 486.746,738.275C488.158,739.681 488.29,742.475 490.352,743.165C491.273,741.046 488.915,739.376 490.481,738.624C495.789,740.196 496.418,746.827 502.088,747.944C502.867,743.763 501.396,742.028 500.462,739.701C510.944,740.444 522.177,740.491 531.525,735.082C533.552,734.515 533.743,735.966 535.976,735.164C537.584,733.451 535.307,733.812 534.78,732.746C541.466,729.992 543.321,729.584 549.006,726.992C550.357,721.101 548.789,717.442 548.748,712.906C551.101,711.259 554.777,710.747 556.563,708.58C556.886,705.082 553.762,705.434 552.823,703.338C556.686,703.225 557.503,700.424 558.725,697.982ZM289.338,562.394C287.643,562.996 285.737,563.296 283.603,563.247C283.373,560.269 288.561,561.3 289.338,562.394ZM248.072,706.506C246.926,705.739 245.294,705.502 245.019,703.785C247.478,703.784 249.936,703.786 251.633,704.622C252.928,706.409 247.515,702.9 248.072,706.506ZM235.468,706.185C233.708,705.57 234.77,705.18 234.81,703.529C235.564,702.637 237.405,702.935 238.999,702.969C240.107,706.553 236.318,704.753 235.468,706.185ZM184.795,700.847C184.006,702.35 180.6,701.089 178.778,701.503C179.543,699.534 183.107,700.127 184.795,700.847ZM291.255,597.609C293.42,595.994 295.855,597.999 296.81,599.335C294.773,601.224 292.166,599.827 291.255,597.609ZM338.562,654.576C338.584,654.511 338.596,654.457 338.622,654.389C339.497,654.425 340.446,654.388 341.241,654.502C340.495,654.614 339.565,654.608 338.562,654.576ZM332.606,654.815C332.604,654.823 332.6,654.828 332.598,654.836C331.741,655.081 331.033,655.484 330.608,656.164C329.867,655.964 329.472,655.394 329.217,654.674C330.299,654.66 331.451,654.737 332.606,654.815ZM332.088,622.433C326.857,622.319 325.528,623.135 321.103,621.27C323.859,620.67 331.024,620.855 332.088,622.433ZM248.005,671.522C249.229,670.022 256.665,670.365 259.462,671.181C254.722,672.688 253.424,671.772 248.005,671.522ZM508.086,606.39C507.104,606.367 506.123,606.343 505.142,606.321C505.129,605.886 505.115,605.449 505.102,605.015C506.222,605.329 508.619,604.208 508.086,606.39ZM404.801,585.28C403.511,587.787 396.575,588.028 396.25,585.823C397.318,583.878 403.102,584.146 404.801,585.28ZM448.092,589.042C438.92,589.607 427.912,590.039 421.135,591.397C421.345,592.655 422.74,592.605 422.191,594.701C418.736,594.42 415.851,594.821 412.999,595.263C412.936,594.276 413.287,592.834 412.518,592.621C406.362,592.736 396.891,589.938 393.474,596.333C389.424,595.216 384.257,598.849 382.065,595.485C385.114,595.07 388.199,594.697 390.745,593.655C389.793,592.026 386.529,595.364 386.851,591.612C407.303,590.24 427.618,588.683 448.092,589.042ZM387.694,586.35C387.592,589.288 381.653,588.59 380.237,587.537C383.233,587.785 384.54,585.91 387.694,586.35ZM351.075,596.715C348.635,595.757 346.189,598.53 344.789,596.506C346.148,594.526 349.72,595.333 351.075,596.715ZM339.021,596.955C337.162,598.092 333.093,597.188 332.288,595.364C333.12,595.265 337.15,596.202 339.021,596.955ZM307.622,595.413C300.204,594.566 287.72,597.476 283.681,593.701C291.611,593.293 299.05,592.573 307.622,595.413ZM279.261,596.637C280.624,599.285 285.343,595.717 289.541,597.478C287.332,602.499 279.988,599.829 275.395,599.604C276.128,597.801 277.388,596.775 279.261,596.637ZM272.324,596.671C272.993,596.876 272.577,597.431 272.145,597.981C272.906,598.053 273.668,598.124 274.43,598.193C274.446,600.564 272.469,600.025 270.731,599.831C270.829,598.928 271.201,598.422 271.574,597.926C271.148,597.736 270.45,597.797 270.522,597.162C271.256,597.199 271.427,596.401 272.324,596.671ZM269.38,597.053C269.17,600.418 265.129,598.131 262.818,598.38C262.442,596.82 262.072,595.252 261.102,594.222C264.236,594.839 266.134,596.557 269.38,597.053ZM258.252,593.913C257.118,595.386 257.136,598.612 255.197,598.879C253.73,595.348 245.353,597.105 244.183,594.906C249.009,594.818 253.861,594.723 258.252,593.913ZM225.824,563.052C223.616,563.568 220.984,563.375 218.366,563.183C219.151,560.314 225.357,561.373 225.824,563.052ZM206.943,559.842C205.917,560.728 203.96,558.223 203.25,561.157C206.856,560.995 209.759,560.826 212.37,561.49C212.212,562.352 212.054,563.213 211.896,564.077C200.537,564.403 195.577,559.741 186.806,559.812C194.485,558.454 202.011,557.945 206.943,559.842ZM136.554,547.783C138.049,547.236 137.761,546.495 137.87,544.786C139.573,545.076 138.497,547.209 138.732,548.472C138.351,548.553 136.254,549.387 136.554,547.783ZM68.792,548.711C67.222,553.073 64.153,553.692 61.034,554.141C62.935,550.583 65.92,549.807 68.792,548.711ZM53.197,573.709C52.068,573.78 51.158,574.398 49.919,574.182C50.147,572.454 52.909,571.661 53.197,573.709ZM100.841,713.733C103.269,713.831 105.466,714.209 106.47,716.019C104.655,714.627 100.663,718.426 100.841,713.733ZM209.851,713.599C209.54,714.547 208.96,715.197 208.106,715.554C178.631,714.254 149.173,715.222 119.757,712.693C119.377,707.798 122.773,710.424 123.775,707.251C137.34,707.828 150.299,707.646 163.855,706.868C164.679,708.99 161.914,707.393 162.742,709.517C181.848,710.315 201.029,711.648 220.021,712.453C231.371,712.934 242.904,713.959 254.212,714.592C262.508,715.057 271.698,711.491 278.767,715.979C255.753,715.636 232.815,715.207 209.851,713.599ZM286.46,708.297C287.034,705.744 288.523,708.257 290.655,707.766C290.661,709.682 287.282,709.221 286.46,708.297ZM301.463,709.412C308.438,708.271 319.279,707.078 324.888,711.39C326.474,711.632 326.433,710.055 326.684,708.8C329.453,712.667 338.712,709.456 341.735,714.425C328.263,712.957 314.878,711.312 301.463,709.412ZM333.33,723.461C336.283,720.102 343.364,722.419 346.547,722.426C343.655,725.993 338.195,723.355 333.33,723.461ZM348.347,724.435C351.206,721.031 361.243,722.591 364.601,724.683C359.219,724.091 354.788,724.79 348.347,724.435ZM528.2,645.207C529.189,644.018 530.682,643.361 532.361,642.902C533.472,643.85 534.48,645.005 534.318,646.927C532.297,646.665 530.277,646.012 528.2,645.207ZM537.496,649.801C540.153,651.755 543.022,653.453 543.849,657.445C540.754,656.013 537.759,654.452 537.496,649.801ZM548.743,680.069C547.409,679.869 546.685,678.987 545.557,678.554C546.521,676.706 549.081,678.358 548.743,680.069Z" style="fill:rgb(85,53,39);fill-opacity:0.898039;fill-rule:nonzero;"/>
    </g>
</svg>
