<?xml version="1.0" encoding="UTF-8"?>
<svg width="32px" height="32px" viewBox="0 0 32 32" version="1.1" xmlns="http://www.w3.org/2000/svg" xmlns:xlink="http://www.w3.org/1999/xlink">
    <!-- Generator: Sketch 46.2 (44496) - http://www.bohemiancoding.com/sketch -->
    <title>GreenDingus</title>
    <desc>Created with Sketch.</desc>
    <defs>
        <linearGradient x1="50%" y1="18.1831796%" x2="50%" y2="100%" id="linearGradient-1">
            <stop stop-color="#FFFFFF" offset="0%"></stop>
            <stop stop-color="#B4EC51" offset="44.7600134%"></stop>
            <stop stop-color="#429321" offset="81.1403858%"></stop>
            <stop stop-color="#E8FFDF" offset="100%"></stop>
        </linearGradient>
        <linearGradient x1="50%" y1="18.1831796%" x2="50%" y2="107.192528%" id="linearGradient-2">
            <stop stop-color="#344D08" offset="0%"></stop>
            <stop stop-color="#36580C" offset="16.0264701%"></stop>
            <stop stop-color="#36590D" offset="17.4549944%"></stop>
            <stop stop-color="#386310" offset="30.9846126%"></stop>
            <stop stop-color="#429321" offset="100%"></stop>
        </linearGradient>
        <linearGradient x1="50%" y1="-1.72734351%" x2="50%" y2="27.8419962%" id="linearGradient-3">
            <stop stop-color="#107FF10F" offset="0%"></stop>
            <stop stop-color="#FFFFFF" offset="0%"></stop>
            <stop stop-color="#7DFE00" offset="100%"></stop>
        </linearGradient>
        <linearGradient x1="69.5037177%" y1="0%" x2="24.5505666%" y2="100%" id="linearGradient-4">
            <stop stop-color="#FFFFFF" offset="0%"></stop>
            <stop stop-color="#9FFB01" offset="27.71802%"></stop>
            <stop stop-color="#A3FF00" offset="33.5120936%"></stop>
            <stop stop-color="#93ED06" offset="46.3895945%"></stop>
            <stop stop-color="#70C711" offset="69.2403916%"></stop>
            <stop stop-color="#5AAE19" offset="83.7415186%"></stop>
            <stop stop-color="#429321" offset="100%"></stop>
        </linearGradient>
        <path d="M23.5,23.5 L23.5,20 L21.5,20 L21.5,23.5 L18,23.5 L18,25.5 L21.5,25.5 L21.5,29 L23.5,29 L23.5,25.5 L27,25.5 L27,23.5 L23.5,23.5 Z" id="path-5"></path>
    </defs>
    <g id="Page-1" stroke="none" stroke-width="1" fill="none" fill-rule="evenodd">
        <g id="GreenDingus">
            <path d="M23,17 L32,17 L16,1 L0,17 L9,17 L9,22 L23,22 L23,17 Z M16,28 L9,22 L23,22 L16,28 Z" id="Combined-Shape" fill="#000000"></path>
            <path d="M21.5898102,15.8581806 L28.8640838,15.8581806 L15.9320419,2.92613874 L3,15.8581806 L10.2742736,15.8581806 L10.2742736,21.515949 L21.5898102,21.515949 L21.5898102,15.8581806 Z M15.9320419,26.25 L10.2742736,21.515949 L21.5898102,21.515949 L15.9320419,26.25 Z" id="Combined-Shape" fill="url(#linearGradient-1)"></path>
            <path d="M20.8893246,15.180788 L27.2629738,15.180788 L15.9320419,3.84985602 L4.60110995,15.180788 L10.9747592,15.180788 L10.9747592,21.061788 L20.8893246,21.061788 L20.8893246,15.180788 Z M15.9320419,25.0953534 L10.9747592,21.061788 L20.8893246,21.061788 L15.9320419,25.0953534 Z" id="Combined-Shape" fill="url(#linearGradient-2)"></path>
            <polygon id="Combined-Shape" fill="#7DFE00" points="12.8 20 12 20 16 24 20 20 19.2 20 16 23.2"></polygon>
            <path d="M20,17.9375 L20,15.5 C20,14.6025373 19.2836556,13.875 18.4,13.875 L17.6,13.875 L17.6,13.2543365 C18.0909995,12.8080136 18.4,12.1594061 18.4,11.4375 C18.4,10.0913059 17.3254834,9 16,9 C14.6745166,9 13.6,10.0913059 13.6,11.4375 C13.6,12.1594061 13.9090005,12.8080136 14.4,13.2543365 L14.4,13.875 L13.6,13.875 C12.7163444,13.875 12,14.6025373 12,15.5 L12,17.9375 L16,22 L20,17.9375 Z" id="Combined-Shape" fill="url(#linearGradient-3)"></path>
            <g id="Combined-Shape">
                <use fill="url(#linearGradient-4)" fill-rule="evenodd" xlink:href="#path-5"></use>
                <path stroke="#000000" stroke-width="1" d="M24,23 L27.5,23 L27.5,26 L24,26 L24,29.5 L21,29.5 L21,26 L17.5,26 L17.5,23 L21,23 L21,19.5 L24,19.5 L24,23 Z"></path>
            </g>
        </g>
    </g>
</svg>