<?xml version="1.0" encoding="UTF-8" standalone="no"?><!DOCTYPE svg PUBLIC "-//W3C//DTD SVG 1.1//EN" "http://www.w3.org/Graphics/SVG/1.1/DTD/svg11.dtd"><svg width="100%" height="100%" viewBox="0 0 32 32" version="1.1" xmlns="http://www.w3.org/2000/svg" xmlns:xlink="http://www.w3.org/1999/xlink" xml:space="preserve" style="fill-rule:evenodd;clip-rule:evenodd;stroke-linejoin:round;stroke-miterlimit:1.41421;"><g id="GreenDingus"><path id="Combined.-Shape" d="M23,17l9,0l-16,-16l-16,16l9,0l0,5l14,0l0,-5Zm-7,11l-7,-6l14,0l-7,6Z"/><path id="Combined.-Shape1" d="M21.59,15.858l7.274,0l-12.932,-12.932l-12.932,12.932l7.274,0l0,5.658l11.316,0l0,-5.658Zm-5.658,10.392l-5.658,-4.734l11.316,0l-5.658,4.734Z" style="fill:none;stroke:#fcf296;stroke-width:1px;"/><path id="Combined.-Shape2" d="M20.889,15.181l6.374,0l-11.331,-11.331l-11.331,11.331l6.374,0l0,5.881l9.914,0l0,-5.881Zm-4.957,9.914l-4.957,-4.033l9.914,0l-4.957,4.033Z" style="fill:#fcf267;"/><path id="Combined.-Shape3" d="M12.8,20l-0.8,0l4,4l4,-4l-0.8,0l-3.2,3.2l-3.2,-3.2Z"/><path id="Combined.-Shape4" d="M20,17.938l0,-2.438c0,-0.897 -0.716,-1.625 -1.6,-1.625l-0.8,0l0,-0.621c0.491,-0.446 0.8,-1.095 0.8,-1.816c0,-1.347 -1.075,-2.438 -2.4,-2.438c-1.325,0 -2.4,1.091 -2.4,2.438c0,0.721 0.309,1.37 0.8,1.816l0,0.621l-0.8,0c-0.884,0 -1.6,0.728 -1.6,1.625l0,2.438l4,4.062l4,-4.063Z"/></g></svg>