<?xml version="1.0" encoding="UTF-8" standalone="no"?><!DOCTYPE svg PUBLIC "-//W3C//DTD SVG 1.1//EN" "http://www.w3.org/Graphics/SVG/1.1/DTD/svg11.dtd"><svg width="100%" height="100%" viewBox="0 0 32 32" version="1.1" xmlns="http://www.w3.org/2000/svg" xmlns:xlink="http://www.w3.org/1999/xlink" xml:space="preserve" style="fill-rule:evenodd;clip-rule:evenodd;stroke-linejoin:round;stroke-miterlimit:1.41421;"><g id="Group"><path id="Combined.-Shape" d="M16,31.614l4.153,-3.727l5.842,2.149l-2.539,-5.877l8.544,1.219l-7.335,-5.273l4.814,-6.489l-7.16,2.482l1.182,-7.109l-4.72,3.499l-2.781,-10.488l-2.781,10.488l-4.72,-3.499l1.182,7.109l-7.16,-2.482l4.814,6.489l-7.335,5.273l8.544,-1.219l-2.539,5.877l5.842,-2.149l4.153,3.727Z" style="fill:#2b9259;"/><g id="Combined.-Shape1"><path id="path.-1" d="M16,29.06l3.374,-2.902l4.747,1.673l-2.063,-4.576l6.942,0.949l-5.96,-4.106l2.912,-4.274l-5.006,1.154l0.961,-5.535l-3.647,2.724l-2.26,-8.167l-2.26,8.167l-3.647,-2.724l0.961,5.535l-5.006,-1.154l2.912,4.274l-5.96,4.106l6.942,-0.949l-2.063,4.576l4.747,-1.673l3.374,2.902Z"/><path id="path.-11" d="M16,29.06l3.374,-2.902l4.747,1.673l-2.063,-4.576l6.942,0.949l-5.96,-4.106l2.912,-4.274l-5.006,1.154l0.961,-5.535l-3.647,2.724l-2.26,-8.167l-2.26,8.167l-3.647,-2.724l0.961,5.535l-5.006,-1.154l2.912,4.274l-5.96,4.106l6.942,-0.949l-2.063,4.576l4.747,-1.673l3.374,2.902Z" style="fill:#fff;fill-opacity:0.0980392;"/></g><g id="Oval"><circle id="path.-3" cx="16" cy="21" r="6" style="fill:url(#_Linear1);"/><circle id="path.-31" cx="16" cy="21" r="6" style="fill:url(#_Linear2);"/></g></g><defs><linearGradient id="_Linear1" x1="0" y1="0" x2="1" y2="0" gradientUnits="userSpaceOnUse" gradientTransform="matrix(-6.20522,2.72696,-2.72696,-6.20522,18.6435,18.9217)"><stop offset="0" style="stop-color:#2ff0cc;stop-opacity:1"/><stop offset="1" style="stop-color:#05ec63;stop-opacity:1"/></linearGradient><linearGradient id="_Linear2" x1="0" y1="0" x2="1" y2="0" gradientUnits="userSpaceOnUse" gradientTransform="matrix(-6.20522,2.72696,-2.72696,-6.20522,18.6435,18.9217)"><stop offset="0" style="stop-color:#2ff0cc;stop-opacity:1"/><stop offset="1" style="stop-color:#05ec63;stop-opacity:1"/></linearGradient></defs></svg>